<svg data-v-0dd9719b="" version="1.0" xmlns="http://www.w3.org/2000/svg" xmlns:xlink="http://www.w3.org/1999/xlink" width="100%" height="100%" viewBox="0 0 340.000000 250.000000" preserveAspectRatio="xMidYMid meet" color-interpolation-filters="sRGB" style="margin: auto;"> <rect data-v-0dd9719b="" x="0" y="0" width="100%" height="100%" fill="#fff" fill-opacity="1" class="background"></rect> <rect data-v-0dd9719b="" x="0" y="0" width="100%" height="100%" fill="url(#watermark)" fill-opacity="1" class="watermarklayer"></rect> <g data-v-0dd9719b="" fill="#333" class="icon-text-wrapper icon-svg-group iconsvg" transform="translate(47.572723388671875,94.99699974060059)"><g class="iconsvg-imagesvg" transform="translate(0,0)"><g><rect fill="#333" fill-opacity="0" stroke-width="2" x="0" y="0" width="60" height="60.006000600060005" class="image-rect"></rect> <svg x="0" y="0" width="60" height="60.006000600060005" filtersec="colorsb262899241" class="image-svg-svg primary" style="overflow: visible;"><svg xmlns="http://www.w3.org/2000/svg" viewBox="0 0 99.98999786376953 100"><path d="M37.63 52c1 0 4.57-.19 6.86-.24.11-15.88-1.05-37.44-6-51.74-1.84 1.4-3.78 2.77-5.84 4.08 4.21 13.35 5.08 33.69 4.98 47.9z" fill="#fcc511"></path><path d="M33.65 37.18C22 36.45 11.34 34.93 4 32.59c-1.22 2-2.55 3.91-4 5.85 8.36 2.92 20.59 4.77 33.89 5.6-.06-2.35-.17-5.26-.24-6.86z" fill="#e50f5e"></path><path d="M62.82 33.65C63.55 22 65.07 11.34 67.41 4c-2-1.22-3.91-2.55-5.85-4-2.92 8.36-4.77 20.59-5.56 33.89 2.6-.07 5.68-.19 6.82-.24z" fill="#00a439"></path><path d="M48 37.63c0 .94.18 4.54.23 6.86 16 .1 37.44-1.06 51.71-6-1.4-1.84-2.77-3.78-4.08-5.84C82.5 36.87 62.5 37.73 48 37.63z" fill="#e50f5e"></path><path d="M66.2 56c.06 2.33.17 5.23.23 6.85 11.64.74 22.25 2.26 29.56 4.59 1.22-2 2.55-3.91 4-5.85C91.66 58.65 79.47 56.8 66.2 56z" fill="#0082c6"></path><path d="M62.37 48c-1.1.05-4.62.19-6.86.24-.09 15 1.08 37.46 6 51.68 1.84-1.4 3.78-2.77 5.84-4.08-4.17-13.17-5.08-33.96-4.98-47.84z" fill="#00a439"></path><path d="M37.18 66.41c-.74 11.64-2.26 22.26-4.59 29.59 2 1.22 3.91 2.55 5.85 4 2.91-8.35 4.77-20.55 5.6-33.83-2.69.07-5.81.2-6.86.24z" fill="#fcc511"></path><path d="M52.07 62.37c0-1-.18-4.58-.23-6.86-15.6-.1-37.41 1-51.8 6 1.4 1.84 2.77 3.78 4.08 5.84 13.28-4.19 34.03-5.08 47.95-4.98z" fill="#0082c6"></path></svg></svg> <!----></g></g> <g transform="translate(67,6.661863327026367)"><g data-gra="path-name" fill-rule="" class="tp-name iconsvg-namesvg" transform="translate(0,0)"><g transform="scale(1)"><g><path d="M27.6-29.32L27.6-29.32 30.27-28.16Q25.88-22.96 18-18.77L18-18.77Q17.19-18.35 16.42-17.96L16.42-17.96Q15.61-19.02 14.27-20.07L14.27-20.07Q20.81-22.78 25.59-27.25L25.59-27.25Q26.72-28.3 27.6-29.32ZM33.86-16.1L33.86-13.46 20.11-13.46Q23.45-5.77 30.9-2.21L30.9-2.21Q32.7-1.34 34.66-0.77L34.66-0.77Q33.61 0.07 32.8 1.69L32.8 1.69Q21.9-1.97 17.4-13.46L17.4-13.46 11.78-13.46 11.78-1.44 20.39-3.55Q20.39-2.11 20.64-1.05L20.64-1.05Q10.2 1.72 8.93 2.39L8.93 2.39Q8.75 2.5 8.65 2.57L8.65 2.57Q8.26 1.13 7.56 0.18L7.56 0.18Q8.96-0.6 9-2L9-2 9-13.46 2.11-13.46 2.11-16.1 9-16.1 9-29.88 11.78-29.88 11.78-16.1 33.86-16.1ZM47.6-4.43L47.6-0.67 60.57-0.67 60.57-4.43 47.6-4.43ZM47.6-6.43L60.57-6.43 60.57-9.91 47.6-9.91 47.6-6.43ZM58.64-14.94L58.64-14.94 49.82-14.94Q48.97-13.57 47.67-12.06L47.67-12.06 60.79-12.06Q59.45-13.64 58.64-14.94ZM55.97-20L55.97-20 52.42-20Q52.21-19.37 51.12-17.16L51.12-17.16 57.3-17.16Q56.29-19.2 55.97-20ZM70-17.16L70-14.94 61.7-14.94Q65.57-10.05 70.8-8.02L70.8-8.02Q69.79-7.03 69.01-5.8L69.01-5.8Q65.88-7.21 63.35-9.42L63.35-9.42 63.35 2.57 60.57 2.57 60.57 1.51 47.6 1.51 47.6 2.71 44.96 2.71 44.96-9.28Q42.26-6.93 39.02-5.27L39.02-5.27Q38.46-6.43 37.37-7.28L37.37-7.28Q37.3-7.31 37.27-7.35L37.27-7.35Q42.93-10.09 46.62-14.94L46.62-14.94 38.04-14.94 38.04-17.16 48.13-17.16Q49.25-19.2 49.61-20L49.61-20 41.13-20 41.13-22.22 50.48-22.22Q50.94-23.52 51.26-24.93L51.26-24.93 40.01-24.93 40.01-27.14 51.71-27.14Q52.07-29.21 52.14-30.13L52.14-30.13 54.81-29.92Q54.77-29.5 54.42-27.14L54.42-27.14 67.99-27.14 67.99-24.93 53.96-24.93Q53.93-24.75 53.89-24.57 53.86-24.4 53.82-24.26 53.79-24.12 53.72-23.89 53.65-23.66 53.63-23.57 53.61-23.48 53.53-23.22 53.44-22.96 53.44-22.9 53.44-22.85 53.33-22.54L53.33-22.54 53.23-22.22 66.9-22.22 66.9-20 58.68-20Q59.17-18.84 60.15-17.16L60.15-17.16 70-17.16ZM106.14-25.17L106.14-22.54 91.27-22.54 91.27-17.68 102.83-17.68 102.83-5.06Q102.83-3.13 101.78-2.53L101.78-2.53Q101.53-2.43 101.29-2.32L101.29-2.32Q99.88-1.83 94.96-1.83L94.96-1.83Q94.78-2.85 94.04-4.46L94.04-4.46Q96.47-4.39 99.25-4.39L99.25-4.39Q100.02-4.61 100.05-5.06L100.05-5.06 100.05-15.12 91.27-15.12 91.27 2.85 88.52 2.85 88.52-15.12 80.3-15.12 80.3-1.69 77.63-1.69 77.63-17.68 88.52-17.68 88.52-22.54 73.93-22.54 73.93-25.17 88.49-25.17 88.49-30.27 91.3-30.27 91.3-25.17 106.14-25.17ZM131.48-2.46L128.74-2.46 128.74-17.12Q124.84-12.27 120.2-9.14L120.2-9.14Q119.53-10.13 118.3-11.21L118.3-11.21Q118.23-11.25 118.2-11.29L118.2-11.29Q125.23-15.61 129.62-23.13L129.62-23.13Q130.18-24.08 130.68-25.03L130.68-25.03 119.78-25.03 119.78-27.63 141.26-27.63 141.26-25.03 133.66-25.03Q132.4-22.39 131.48-21.06L131.48-21.06 131.48-2.46ZM132.33-17.51L132.33-17.51 134.19-19.09Q139.82-13.68 142-11.11L142-11.11 139.99-9.21Q137.67-12.16 132.33-17.51ZM118.76-23.66L118.76-23.66 116.58-21.97Q114.79-24.57 111.23-27.98L111.23-27.98Q111.13-28.09 111.09-28.13L111.09-28.13 113.13-29.57Q117.14-25.84 118.76-23.66ZM109.65-18L117-18 117-4.01Q117.28-3.83 117.95-3.3L117.95-3.3Q119.04-2.5 119.74-2.04L119.74-2.04Q122.34-0.39 127.72-0.28L127.72-0.28Q128.53-0.25 129.41-0.25L129.41-0.25Q136.41-0.25 142.91-1.02L142.91-1.02Q142.17 0.84 142.1 1.97L142.1 1.97Q134.4 2.39 129.38 2.39L129.38 2.39Q123.29 2.39 120.2 0.95L120.2 0.95Q119.6 0.67 119.04 0.35L119.04 0.35Q118.58 0.04 117.74-0.63L117.74-0.63Q116.12-1.86 115.56-1.9L115.56-1.9Q114.36-1.9 111.76 1.83L111.76 1.83Q111.41 2.29 111.02 2.85L111.02 2.85 109.05 0.28Q112.25-3.34 114.36-4.22L114.36-4.22 114.36-15.36 109.65-15.36 109.65-18ZM154.97-15.19L155.43-12.73 152.16-11.57 152.16-0.21Q152.09 1.76 151.03 2.32L151.03 2.32Q149.98 2.74 146.71 2.74L146.71 2.74Q146.5 1.58 145.93 0.39L145.93 0.39Q148.46 0.46 149.2 0.39L149.2 0.39Q149.8 0.32 149.84-0.21L149.84-0.21 149.84-10.65Q149.17-10.41 147.87-9.95L147.87-9.95Q146.46-9.42 145.83-9.21L145.83-9.21 145.16-11.78Q145.41-11.85 149.84-13.36L149.84-13.36 149.84-20.46 145.62-20.46 145.62-22.89 149.84-22.89 149.84-30.09 152.16-30.09 152.16-22.89 155.14-22.89 155.14-20.46 152.16-20.46 152.16-14.17Q152.82-14.38 154.97-15.19L154.97-15.19ZM162.35-17.05L162.81-17.12 164.29-16.84Q163.58-9.07 161.05-4.01L161.05-4.01Q163.79-0.74 169.24-0.42L169.24-0.42Q169.95-0.39 170.72-0.39L170.72-0.39Q177.4-0.39 178.73-0.42L178.73-0.42Q178.1 0.67 177.89 1.97L177.89 1.97 170.58 1.97Q164.39 1.97 161.19-0.53L161.19-0.53Q160.42-1.13 159.79-1.86L159.79-1.86Q157.82 0.98 154.9 2.74L154.9 2.74Q154.23 1.58 153.46 0.84L153.46 0.84Q156.38-0.74 158.31-3.94L158.31-3.94Q156.66-6.79 155.67-11.36L155.67-11.36 157.71-12.02Q158.41-8.58 159.54-6.33L159.54-6.33Q161.16-10.16 161.72-14.94L161.72-14.94 158.27-14.94 157.61-13.46 155.36-13.92Q157.25-18.11 160.17-25.63L160.17-25.63 155.5-25.63 155.5-27.98 161.3-27.98 161.68-28.13 163.41-27.63Q161.75-23.1 159.19-17.05L159.19-17.05 162.35-17.05ZM169.91-25.35L169.91-18 165.62-18 165.62-15.61 169.91-15.61 169.91-7.07 164.57-7.07 164.57-4.71 177.54-4.71 177.54-7.07 172.37-7.07 172.37-15.61 176.59-15.61 176.59-18 172.37-18 172.37-25.88Q173.78-26.23 175.04-26.63 176.31-27.04 177.36-27.42L177.36-27.42 175.43-29.36Q174.48-28.93 173.18-28.53 171.88-28.13 170.42-27.76 168.96-27.39 167.4-27.07 165.83-26.75 164.36-26.51L164.36-26.51Q164.57-26.05 164.79-25.49 165.02-24.93 165.13-24.47L165.13-24.47Q166.25-24.64 167.47-24.87 168.68-25.1 169.91-25.35L169.91-25.35Z" transform="translate(-2.109999895095825, 30.270000457763672)"></path></g> <!----> <!----> <!----> <!----> <!----> <!----> <!----></g></g> <g data-gra="path-slogan" fill-rule="" class="tp-slogan iconsvg-slogansvg" fill="#333" transform="translate(-1.2300033569335938,39.119998931884766)"><rect width="0"></rect> <rect x="182.0800018310547" width="0"></rect> <g transform="translate(0,0)"><g transform="scale(1)"><path d="M6.81-5.11L6.81-5.11L5.86-5.11Q5.50-6.57 3.84-6.61L3.84-6.61Q1.54-6.49 1.46-3.68L1.46-3.68Q1.46-0.67 3.88-0.67L3.88-0.67Q5.54-0.71 5.94-2.69L5.94-2.69L6.89-2.69Q6.45 0.04 3.68 0.12L3.68 0.12Q0.51 0 0.44-3.64L0.44-3.64Q0.59-7.28 3.84-7.44L3.84-7.44Q6.41-7.36 6.81-5.11ZM9.03-4.28L12.83-4.28L12.83-7.24L13.82-7.24L13.82 0L12.83 0L12.83-3.36L9.03-3.36L9.03 0L8.04 0L8.04-7.24L9.03-7.24L9.03-4.28ZM20.11 0L19.40-2.10L16.47-2.10L15.72 0L14.73 0L17.46-7.24L18.57-7.24L21.18 0L20.11 0ZM17.93-6.18L16.78-2.97L19.04-2.97L17.97-6.18L17.93-6.18ZM23.24-7.24L26.88-1.39L26.88-7.24L27.83-7.24L27.83 0L26.72 0L23.04-5.86L23.00-5.86L23.00 0L22.05 0L22.05-7.24L23.24-7.24ZM34.76-3.05L32.54-3.05L32.54-3.88L35.71-3.88L35.71 0L35.07 0L34.84-0.91Q34.00 0.08 32.46 0.12L32.46 0.12Q31.00 0.12 30.20-0.63L30.20-0.63Q29.02-1.74 29.06-3.68L29.06-3.68Q29.33-7.28 32.50-7.44L32.50-7.44Q35.19-7.28 35.59-5.07L35.59-5.07L34.64-5.07Q34.24-6.57 32.46-6.61L32.46-6.61Q30.20-6.45 30.09-3.64L30.09-3.64Q30.09-0.63 32.50-0.63L32.50-0.63Q33.37-0.63 34.00-1.11L34.00-1.11Q34.80-1.74 34.76-3.05L34.76-3.05ZM43.27-5.11L43.27-5.11L42.32-5.11Q41.96-6.57 40.30-6.61L40.30-6.61Q38.00-6.49 37.92-3.68L37.92-3.68Q37.92-0.67 40.34-0.67L40.34-0.67Q42.00-0.71 42.40-2.69L42.40-2.69L43.35-2.69Q42.91 0.04 40.14 0.12L40.14 0.12Q36.97 0 36.89-3.64L36.89-3.64Q37.05-7.28 40.30-7.44L40.30-7.44Q42.87-7.36 43.27-5.11ZM45.48-4.28L49.29-4.28L49.29-7.24L50.27-7.24L50.27 0L49.29 0L49.29-3.36L45.48-3.36L45.48 0L44.50 0L44.50-7.24L45.48-7.24L45.48-4.28ZM56.57-2.69L56.57-7.24L57.56-7.24L57.56-2.57Q57.44 0.04 54.59 0.12L54.59 0.12Q51.94 0.04 51.82-2.41L51.82-2.41L51.82-7.24L52.81-7.24L52.81-2.69Q52.85-0.71 54.63-0.67L54.63-0.67Q56.57-0.71 56.57-2.69L56.57-2.69ZM60.25-7.24L63.89-1.39L63.89-7.24L64.84-7.24L64.84 0L63.73 0L60.05-5.86L60.01-5.86L60.01 0L59.06 0L59.06-7.24L60.25-7.24ZM75.21-5.11L75.21-5.11L74.26-5.11Q73.91-6.57 72.25-6.61L72.25-6.61Q69.95-6.49 69.87-3.68L69.87-3.68Q69.87-0.67 72.29-0.67L72.29-0.67Q73.95-0.71 74.34-2.69L74.34-2.69L75.29-2.69Q74.86 0.04 72.09 0.12L72.09 0.12Q68.92 0 68.84-3.64L68.84-3.64Q69.00-7.28 72.25-7.44L72.25-7.44Q74.82-7.36 75.21-5.11ZM76.60-7.24L77.59-7.24L77.59 0L76.60 0L76.60-7.24ZM81.11-6.41L78.66-6.41L78.66-7.24L84.52-7.24L84.52-6.41L82.06-6.41L82.06 0L81.11 0L81.11-6.41ZM91.25-7.24L88.52-2.93L88.52 0L87.53 0L87.53-2.93L84.79-7.24L85.94-7.24L88.00-3.76L90.10-7.24L91.25-7.24ZM95.09-7.24L96.08-7.24L96.08 0L95.09 0L95.09-7.24ZM103.04-5.15L103.04-5.15L102.13-5.15Q102.05-6.53 100.31-6.61L100.31-6.61Q98.69-6.57 98.69-5.34L98.69-5.34Q98.69-4.55 99.56-4.43L99.56-4.43L101.62-3.96Q103.24-3.56 103.24-1.98L103.24-1.98Q103.20 0.04 100.39 0.12L100.39 0.12Q98.85 0.12 98.21-0.51L98.21-0.51Q97.42-1.11 97.46-2.34L97.46-2.34L98.41-2.34Q98.45-0.67 100.39-0.63L100.39-0.63Q102.29-0.67 102.33-1.86L102.33-1.86Q102.49-2.85 100.75-3.17L100.75-3.17L99.24-3.48Q97.70-3.92 97.70-5.23L97.70-5.23Q97.82-7.36 100.23-7.44L100.23-7.44Q102.96-7.44 103.04-5.15ZM110.37-6.45L108.39-6.45L108.39-3.92L110.33-3.92Q111.83-3.92 111.83-5.23L111.83-5.23Q111.83-6.41 110.37-6.45L110.37-6.45ZM110.68-3.05L108.39-3.05L108.39 0L107.40 0L107.40-7.24L110.68-7.24Q112.74-7.17 112.82-5.23L112.82-5.23Q112.70-3.13 110.68-3.05L110.68-3.05ZM117.49-3.13L115.12-3.13L115.12 0L114.13 0L114.13-7.24L117.49-7.24Q119.91-7.24 119.91-5.30L119.91-5.30Q119.91-4.12 118.88-3.56L118.88-3.56Q119.75-3.33 119.75-2.18L119.75-2.18L119.83-0.87Q119.79-0.32 120.18-0.16L120.18-0.16L120.18 0L118.96 0Q118.84-0.51 118.80-1.82L118.80-1.82Q118.84-3.13 117.49-3.13L117.49-3.13ZM117.57-6.45L115.12-6.45L115.12-3.96L117.41-3.96Q118.88-3.96 118.88-5.23L118.88-5.23Q118.88-6.45 117.57-6.45L117.57-6.45ZM122.40-0.87L126.76-0.87L126.76 0L121.41 0L121.41-7.24L126.68-7.24L126.68-6.41L122.40-6.41L122.40-4.16L126.36-4.16L126.36-3.29L122.40-3.29L122.40-0.87ZM129.88-6.41L127.43-6.41L127.43-7.24L133.29-7.24L133.29-6.41L130.83-6.41L130.83 0L129.88 0L129.88-6.41ZM136.02-6.41L133.56-6.41L133.56-7.24L139.42-7.24L139.42-6.41L136.97-6.41L136.97 0L136.02 0L136.02-6.41ZM146.15-7.24L143.42-2.93L143.42 0L142.43 0L142.43-2.93L139.70-7.24L140.85-7.24L142.91-3.76L145.01-7.24L146.15-7.24ZM155.26-3.05L153.04-3.05L153.04-3.88L156.21-3.88L156.21 0L155.58 0L155.34-0.91Q154.51 0.08 152.96 0.12L152.96 0.12Q151.50 0.12 150.71-0.63L150.71-0.63Q149.52-1.74 149.56-3.68L149.56-3.68Q149.84-7.28 153.00-7.44L153.00-7.44Q155.69-7.28 156.09-5.07L156.09-5.07L155.14-5.07Q154.74-6.57 152.96-6.61L152.96-6.61Q150.71-6.45 150.59-3.64L150.59-3.64Q150.59-0.63 153.00-0.63L153.00-0.63Q153.87-0.63 154.51-1.11L154.51-1.11Q155.30-1.74 155.26-3.05L155.26-3.05ZM163.45-3.60L163.45-3.60Q163.29-6.45 160.92-6.61L160.92-6.61Q158.50-6.49 158.39-3.60L158.39-3.60Q158.50-0.79 160.92-0.67L160.92-0.67Q163.29-0.83 163.45-3.60ZM164.44-3.60L164.44-3.60Q164.20 0 160.92 0.12L160.92 0.12Q157.59 0 157.36-3.60L157.36-3.60Q157.55-7.36 160.92-7.44L160.92-7.44Q164.20-7.32 164.44-3.60ZM171.33-3.60L171.33-3.60Q171.17-6.45 168.80-6.61L168.80-6.61Q166.38-6.49 166.26-3.60L166.26-3.60Q166.38-0.79 168.80-0.67L168.80-0.67Q171.17-0.83 171.33-3.60ZM172.32-3.60L172.32-3.60Q172.08 0 168.80 0.12L168.80 0.12Q165.47 0 165.23-3.60L165.23-3.60Q165.43-7.36 168.80-7.44L168.80-7.44Q172.08-7.32 172.32-3.60ZM176.44 0L173.51 0L173.51-7.24L176.48-7.24Q179.41-7.09 179.52-3.72L179.52-3.72Q179.37-0.08 176.44 0L176.44 0ZM176.32-6.45L174.50-6.45L174.50-0.83L176.40-0.83Q178.46-0.95 178.54-3.64L178.54-3.64Q178.50-6.37 176.32-6.45L176.32-6.45Z" transform="translate(-0.43545194633824497, 7.442269628326368)"></path></g></g></g></g></g><defs v-gra="od"></defs></svg>